<svg xmlns="http://www.w3.org/2000/svg" xmlns:xlink="http://www.w3.org/1999/xlink" width="500" zoomAndPan="magnify" viewBox="0 0 375 374.999991" height="500" preserveAspectRatio="xMidYMid meet" version="1.0"><defs><g/><clipPath id="9d87b2a57b"><path d="M 60.378906 60.378906 L 314.617188 60.378906 L 314.617188 314.617188 L 60.378906 314.617188 Z M 60.378906 60.378906 " clip-rule="nonzero"/></clipPath><clipPath id="ab31936366"><path d="M 187.5 60.378906 C 117.292969 60.378906 60.378906 117.292969 60.378906 187.5 C 60.378906 257.707031 117.292969 314.617188 187.5 314.617188 C 257.707031 314.617188 314.617188 257.707031 314.617188 187.5 C 314.617188 117.292969 257.707031 60.378906 187.5 60.378906 Z M 187.5 60.378906 " clip-rule="nonzero"/></clipPath><clipPath id="921f17a28d"><path d="M 96 133 L 279.285156 133 L 279.285156 231.367188 L 96 231.367188 Z M 96 133 " clip-rule="nonzero"/></clipPath></defs><g clip-path="url(#9d87b2a57b)"><g clip-path="url(#ab31936366)"><path fill="#ffffff" d="M 60.378906 60.378906 L 314.617188 60.378906 L 314.617188 314.617188 L 60.378906 314.617188 Z M 60.378906 60.378906 " fill-opacity="1" fill-rule="nonzero"/><path stroke-linecap="butt" transform="matrix(0.75, 0, 0, 0.75, 60.380859, 60.380854)" fill="none" stroke-linejoin="miter" d="M 169.492199 -0.00259758 C 75.882818 -0.00259758 -0.00260358 75.882824 -0.00260358 169.492205 C -0.00260358 263.101586 75.882818 338.9818 169.492199 338.9818 C 263.10158 338.9818 338.981794 263.101586 338.981794 169.492205 C 338.981794 75.882824 263.10158 -0.00259758 169.492199 -0.00259758 Z M 169.492199 -0.00259758 " stroke="#253439" stroke-width="20" stroke-opacity="1" stroke-miterlimit="4"/></g></g><g clip-path="url(#921f17a28d)"><path fill="#253439" d="M 106.722656 213.222656 C 105.25 212.140625 103.886719 210.933594 102.722656 209.5625 C 105.515625 211.828125 108.730469 213.375 112.082031 214.320312 C 113.769531 214.769531 115.46875 215.132812 117.195312 215.371094 C 118.921875 215.585938 120.65625 215.738281 122.398438 215.761719 C 125.878906 215.878906 129.375 215.683594 132.851562 215.273438 C 136.328125 214.867188 139.800781 214.347656 143.246094 213.65625 C 157.042969 210.859375 170.5625 206.53125 184.003906 201.949219 C 197.457031 197.359375 210.777344 192.28125 224.410156 187.761719 C 227.824219 186.648438 231.246094 185.515625 234.757812 184.582031 C 236.511719 184.113281 238.285156 183.679688 240.109375 183.328125 L 242.796875 182.867188 L 245.421875 182.441406 C 248.910156 181.847656 252.378906 181.144531 255.769531 180.1875 C 257.472656 179.710938 259.132812 179.132812 260.734375 178.410156 L 261.90625 177.820312 C 262.265625 177.585938 262.667969 177.386719 263.003906 177.113281 C 263.359375 176.859375 263.679688 176.570312 263.972656 176.246094 C 264.242188 175.914062 264.507812 175.539062 264.539062 175.085938 C 264.59375 175.539062 264.394531 175.988281 264.171875 176.386719 C 263.929688 176.777344 263.640625 177.136719 263.3125 177.464844 C 263.003906 177.8125 262.632812 178.078125 262.289062 178.390625 L 261.175781 179.203125 C 259.636719 180.183594 258.003906 181.015625 256.335938 181.746094 C 253.003906 183.214844 249.539062 184.28125 246.070312 185.3125 L 240.898438 186.675781 C 239.246094 187.152344 237.585938 187.722656 235.933594 188.328125 C 232.632812 189.550781 229.3125 190.8125 226.015625 192.15625 C 212.832031 197.535156 199.558594 202.976562 185.957031 207.640625 C 179.152344 209.964844 172.277344 212.125 165.292969 213.96875 C 158.308594 215.792969 151.226562 217.371094 144.007812 218.289062 C 136.8125 219.238281 129.457031 219.65625 122.152344 218.707031 C 118.519531 218.203125 114.902344 217.351562 111.519531 215.894531 C 109.84375 215.132812 108.21875 214.273438 106.722656 213.222656 Z M 146.269531 189.085938 C 147.039062 186.964844 149.378906 185.867188 151.503906 186.636719 C 153.625 187.40625 154.71875 189.746094 153.953125 191.867188 C 153.183594 193.988281 150.839844 195.085938 148.71875 194.320312 C 146.597656 193.550781 145.5 191.207031 146.269531 189.085938 Z M 155.773438 180.523438 C 156.542969 178.402344 158.886719 177.304688 161.007812 178.074219 C 163.128906 178.839844 164.226562 181.183594 163.457031 183.304688 C 162.6875 185.425781 160.34375 186.523438 158.222656 185.753906 C 156.101562 184.988281 155.003906 182.644531 155.773438 180.523438 Z M 164.714844 170.039062 C 165.484375 167.917969 167.824219 166.820312 169.949219 167.585938 C 172.070312 168.359375 173.167969 170.699219 172.398438 172.820312 C 171.628906 174.941406 169.289062 176.039062 167.164062 175.269531 C 165.042969 174.503906 163.949219 172.160156 164.714844 170.039062 Z M 173.601562 159.078125 C 174.371094 156.957031 176.710938 155.859375 178.832031 156.628906 C 180.957031 157.394531 182.050781 159.738281 181.285156 161.859375 C 180.515625 163.980469 178.171875 165.078125 176.050781 164.3125 C 173.929688 163.542969 172.832031 161.199219 173.601562 159.078125 Z M 186.652344 171.066406 C 187.871094 169.125 189.066406 167.167969 190.25 165.195312 L 192.050781 162.226562 C 192.699219 161.199219 193.34375 160.167969 194.121094 159.175781 C 194.3125 158.929688 194.492188 158.675781 194.695312 158.429688 L 195.34375 157.714844 L 195.996094 157 C 196.226562 156.765625 196.492188 156.550781 196.738281 156.328125 L 197.5 155.667969 C 197.773438 155.464844 198.070312 155.277344 198.359375 155.085938 C 198.65625 154.902344 198.929688 154.691406 199.246094 154.535156 L 200.21875 154.09375 C 200.851562 153.769531 201.554688 153.65625 202.234375 153.457031 C 202.910156 153.304688 203.597656 153.261719 204.273438 153.183594 C 204.929688 153.1875 205.601562 153.160156 206.238281 153.199219 C 206.863281 153.261719 207.507812 153.308594 208.117188 153.398438 C 210.566406 153.753906 212.828125 154.324219 215.078125 154.878906 C 217.328125 155.425781 219.554688 156 221.769531 156.507812 C 223.898438 156.921875 226.070312 157.230469 228.253906 157.105469 C 229.351562 157.140625 230.429688 156.917969 231.527344 156.808594 C 232.597656 156.566406 233.691406 156.375 234.746094 156.015625 C 239.019531 154.75 243.035156 152.375 246.453125 149.25 C 243.726562 153.027344 239.875 156.046875 235.476562 157.984375 C 231.078125 159.96875 226 160.515625 221.152344 159.792969 C 218.824219 159.4375 216.535156 159.019531 214.269531 158.570312 C 212.003906 158.148438 209.753906 157.660156 207.613281 157.4375 C 207.074219 157.375 206.558594 157.371094 206.035156 157.320312 C 205.519531 157.300781 205.035156 157.339844 204.535156 157.339844 C 204.070312 157.417969 203.589844 157.445312 203.144531 157.558594 C 202.722656 157.710938 202.261719 157.761719 201.875 157.996094 C 200.25 158.703125 198.808594 160.109375 197.53125 161.796875 C 197.222656 162.234375 196.875 162.625 196.585938 163.09375 L 195.691406 164.46875 L 193.871094 167.417969 C 192.625 169.382812 191.378906 171.351562 190.074219 173.285156 C 187.464844 177.152344 184.730469 180.953125 181.71875 184.550781 C 178.742188 188.167969 175.511719 191.601562 171.949219 194.675781 C 168.363281 197.695312 164.410156 200.441406 159.984375 201.941406 C 163.988281 199.570312 167.398438 196.5 170.488281 193.152344 C 173.597656 189.820312 176.386719 186.199219 179.0625 182.5 C 181.699219 178.769531 184.226562 174.957031 186.652344 171.066406 Z M 183.222656 148.613281 C 183.992188 146.492188 186.332031 145.394531 188.457031 146.164062 C 190.574219 146.929688 191.671875 149.273438 190.90625 151.394531 C 190.136719 153.515625 187.792969 154.613281 185.671875 153.84375 C 183.550781 153.078125 182.453125 150.734375 183.222656 148.613281 Z M 197.5625 223.238281 C 190.375 223.238281 183.40625 223.28125 176.765625 223.367188 C 178.355469 222.992188 179.945312 222.609375 181.542969 222.210938 L 181.546875 219.660156 L 183.40625 221.742188 C 189.386719 220.214844 195.367188 218.539062 201.226562 216.78125 L 201.230469 214.132812 L 203.09375 216.21875 C 213.53125 213.039062 223.554688 209.621094 232.515625 206.367188 L 232.519531 203.511719 L 234.441406 205.664062 C 240.722656 203.359375 246.4375 201.152344 251.351562 199.1875 L 251.359375 195.695312 L 253.652344 198.261719 C 262.105469 194.839844 267.78125 192.292969 269.261719 191.507812 C 272.746094 189.65625 274.621094 187.902344 275.613281 186.457031 C 276.707031 184.855469 276.488281 182.6875 275.175781 181.261719 C 261.265625 166.148438 260.644531 149.855469 250.929688 138.140625 C 240.902344 126.046875 241.476562 143.40625 227.136719 148.277344 C 212.796875 153.148438 195.542969 138.894531 195.542969 138.894531 C 187.574219 112.914062 150.722656 194.472656 123.390625 196.695312 C 113.421875 197.507812 107.070312 198.988281 103.027344 200.546875 C 98.007812 202.480469 95.539062 208.101562 97.429688 213.136719 C 100.40625 221.0625 107.378906 225.671875 116.894531 227.867188 C 117.339844 227.992188 117.90625 228.109375 118.578125 228.226562 C 118.601562 228.230469 118.625 228.238281 118.648438 228.242188 L 118.648438 228.238281 C 119.148438 228.324219 119.707031 228.414062 120.324219 228.496094 L 120.332031 228.542969 C 123.398438 229.042969 126.691406 229.324219 130.160156 229.417969 C 144.941406 230.449219 169.613281 231.121094 197.5625 231.121094 C 242.796875 231.121094 279.46875 229.355469 279.46875 227.179688 C 279.46875 225.003906 242.796875 223.238281 197.5625 223.238281 " fill-opacity="1" fill-rule="nonzero"/></g><g fill="#253439" fill-opacity="1"><g transform="translate(130.090858, 265.557056)"><g><path d="M 12.859375 -15 L 8.6875 -15 L 8.6875 -16.609375 C 8.6875 -16.773438 8.625 -16.921875 8.5 -17.046875 C 8.382812 -17.171875 8.242188 -17.234375 8.078125 -17.234375 L 6.359375 -17.234375 C 6.191406 -17.234375 6.046875 -17.171875 5.921875 -17.046875 C 5.804688 -16.921875 5.75 -16.773438 5.75 -16.609375 L 5.75 -12.984375 C 5.75 -12.816406 5.804688 -12.671875 5.921875 -12.546875 C 6.046875 -12.421875 6.191406 -12.359375 6.359375 -12.359375 L 9.1875 -12.359375 C 11.78125 -12.316406 13.078125 -10.929688 13.078125 -8.203125 L 13.078125 -3.84375 C 13.078125 -1.070312 11.78125 0.3125 9.1875 0.3125 L 5.46875 0.3125 C 2.875 0.3125 1.578125 -1.070312 1.578125 -3.84375 L 1.578125 -5.9375 L 5.75 -5.9375 L 5.75 -3.6875 C 5.75 -3.507812 5.804688 -3.359375 5.921875 -3.234375 C 6.046875 -3.109375 6.191406 -3.046875 6.359375 -3.046875 L 8.296875 -3.046875 C 8.472656 -3.046875 8.617188 -3.109375 8.734375 -3.234375 C 8.847656 -3.359375 8.90625 -3.507812 8.90625 -3.6875 L 8.90625 -7.671875 C 8.90625 -7.835938 8.847656 -7.984375 8.734375 -8.109375 C 8.617188 -8.234375 8.472656 -8.296875 8.296875 -8.296875 L 5.46875 -8.296875 C 2.875 -8.296875 1.578125 -9.679688 1.578125 -12.453125 L 1.578125 -16.515625 C 1.578125 -19.285156 2.875 -20.671875 5.46875 -20.671875 L 8.96875 -20.671875 C 11.5625 -20.671875 12.859375 -19.285156 12.859375 -16.515625 Z M 12.859375 -15 "/></g></g></g><g fill="#253439" fill-opacity="1"><g transform="translate(144.489198, 265.557056)"><g><path d="M 5.96875 -20.34375 L 5.96875 0 L 1.578125 0 L 1.578125 -20.34375 Z M 5.96875 -20.34375 "/></g></g></g><g fill="#253439" fill-opacity="1"><g transform="translate(152.159932, 265.557056)"><g><path d="M 5.96875 -3.71875 L 10.78125 -3.71875 L 10.78125 0 L 1.578125 0 L 1.578125 -20.34375 L 5.96875 -20.34375 Z M 5.96875 -3.71875 "/></g></g></g><g fill="#253439" fill-opacity="1"><g transform="translate(163.445972, 265.557056)"><g><path d="M 14.25 -20.34375 L 10.78125 -11.015625 L 14.90625 0 L 10.40625 0 L 7.390625 -8.046875 L 5.96875 -8.046875 L 5.96875 0 L 1.578125 0 L 1.578125 -20.34375 L 5.96875 -20.34375 L 5.96875 -11.828125 L 7.046875 -11.828125 L 10.21875 -20.34375 Z M 14.25 -20.34375 "/></g></g></g><g fill="#253439" fill-opacity="1"><g transform="translate(178.284435, 265.557056)"><g/></g></g><g fill="#253439" fill-opacity="1"><g transform="translate(184.634794, 265.557056)"><g><path d="M 5.96875 -8.328125 L 5.96875 0 L 1.578125 0 L 1.578125 -20.34375 L 9.40625 -20.34375 C 12 -20.34375 13.296875 -18.960938 13.296875 -16.203125 L 13.296875 -13.84375 C 13.296875 -12.164062 12.703125 -11.09375 11.515625 -10.625 C 12.554688 -10.25 13.078125 -9.390625 13.078125 -8.046875 L 13.078125 0 L 8.6875 0 L 8.6875 -7.703125 C 8.6875 -8.117188 8.484375 -8.328125 8.078125 -8.328125 Z M 5.96875 -17.359375 L 5.96875 -11.421875 L 8.296875 -11.421875 C 8.472656 -11.421875 8.617188 -11.484375 8.734375 -11.609375 C 8.847656 -11.734375 8.90625 -11.878906 8.90625 -12.046875 L 8.90625 -16.734375 C 8.90625 -16.898438 8.847656 -17.046875 8.734375 -17.171875 C 8.617188 -17.296875 8.472656 -17.359375 8.296875 -17.359375 Z M 5.96875 -17.359375 "/></g></g></g><g fill="#253439" fill-opacity="1"><g transform="translate(199.19032, 265.557056)"><g><path d="M 13.5625 -16.515625 L 13.5625 -3.84375 C 13.5625 -1.070312 12.257812 0.3125 9.65625 0.3125 L 5.46875 0.3125 C 2.875 0.3125 1.578125 -1.070312 1.578125 -3.84375 L 1.578125 -16.515625 C 1.578125 -19.285156 2.875 -20.671875 5.46875 -20.671875 L 9.65625 -20.671875 C 12.257812 -20.671875 13.5625 -19.285156 13.5625 -16.515625 Z M 9.15625 -3.328125 L 9.15625 -17.046875 C 9.15625 -17.210938 9.097656 -17.359375 8.984375 -17.484375 C 8.867188 -17.609375 8.726562 -17.671875 8.5625 -17.671875 L 6.578125 -17.671875 C 6.410156 -17.671875 6.265625 -17.609375 6.140625 -17.484375 C 6.023438 -17.359375 5.96875 -17.210938 5.96875 -17.046875 L 5.96875 -3.328125 C 5.96875 -3.160156 6.023438 -3.015625 6.140625 -2.890625 C 6.265625 -2.765625 6.410156 -2.703125 6.578125 -2.703125 L 8.5625 -2.703125 C 8.726562 -2.703125 8.867188 -2.765625 8.984375 -2.890625 C 9.097656 -3.015625 9.15625 -3.160156 9.15625 -3.328125 Z M 9.15625 -3.328125 "/></g></g></g><g fill="#253439" fill-opacity="1"><g transform="translate(214.406039, 265.557056)"><g><path d="M 9.65625 -20.671875 C 12.257812 -20.671875 13.5625 -19.285156 13.5625 -16.515625 L 13.5625 0 L 9.15625 0 L 9.15625 -6.828125 L 5.96875 -6.828125 L 5.96875 0 L 1.578125 0 L 1.578125 -16.515625 C 1.578125 -19.285156 2.875 -20.671875 5.46875 -20.671875 Z M 5.96875 -10.21875 L 9.15625 -10.21875 L 9.15625 -17.046875 C 9.15625 -17.210938 9.097656 -17.359375 8.984375 -17.484375 C 8.867188 -17.609375 8.726562 -17.671875 8.5625 -17.671875 L 6.578125 -17.671875 C 6.410156 -17.671875 6.265625 -17.609375 6.140625 -17.484375 C 6.023438 -17.359375 5.96875 -17.210938 5.96875 -17.046875 Z M 5.96875 -10.21875 "/></g></g></g><g fill="#253439" fill-opacity="1"><g transform="translate(229.653196, 265.557056)"><g><path d="M 9.65625 -20.34375 C 12.257812 -20.34375 13.5625 -18.960938 13.5625 -16.203125 L 13.5625 -4.15625 C 13.5625 -1.382812 12.257812 0 9.65625 0 L 1.578125 0 L 1.578125 -20.34375 Z M 9.15625 -3.65625 L 9.15625 -16.734375 C 9.15625 -16.898438 9.097656 -17.046875 8.984375 -17.171875 C 8.867188 -17.296875 8.726562 -17.359375 8.5625 -17.359375 L 5.96875 -17.359375 L 5.96875 -3.015625 L 8.5625 -3.015625 C 8.726562 -3.015625 8.867188 -3.078125 8.984375 -3.203125 C 9.097656 -3.328125 9.15625 -3.476562 9.15625 -3.65625 Z M 9.15625 -3.65625 "/></g></g></g><g fill="#253439" fill-opacity="1"><g transform="translate(144.935496, 282.624175)"><g><path d="M 5.4375 -6.328125 L 3.671875 -6.328125 L 3.671875 -7.015625 C 3.671875 -7.085938 3.644531 -7.148438 3.59375 -7.203125 C 3.539062 -7.253906 3.476562 -7.28125 3.40625 -7.28125 L 2.6875 -7.28125 C 2.613281 -7.28125 2.550781 -7.253906 2.5 -7.203125 C 2.457031 -7.148438 2.4375 -7.085938 2.4375 -7.015625 L 2.4375 -5.484375 C 2.4375 -5.410156 2.457031 -5.347656 2.5 -5.296875 C 2.550781 -5.242188 2.613281 -5.21875 2.6875 -5.21875 L 3.875 -5.21875 C 4.976562 -5.195312 5.53125 -4.613281 5.53125 -3.46875 L 5.53125 -1.625 C 5.53125 -0.445312 4.976562 0.140625 3.875 0.140625 L 2.3125 0.140625 C 1.21875 0.140625 0.671875 -0.445312 0.671875 -1.625 L 0.671875 -2.515625 L 2.4375 -2.515625 L 2.4375 -1.546875 C 2.4375 -1.484375 2.457031 -1.421875 2.5 -1.359375 C 2.550781 -1.304688 2.613281 -1.28125 2.6875 -1.28125 L 3.5 -1.28125 C 3.570312 -1.28125 3.632812 -1.304688 3.6875 -1.359375 C 3.738281 -1.421875 3.765625 -1.484375 3.765625 -1.546875 L 3.765625 -3.234375 C 3.765625 -3.304688 3.738281 -3.367188 3.6875 -3.421875 C 3.632812 -3.472656 3.570312 -3.5 3.5 -3.5 L 2.3125 -3.5 C 1.21875 -3.5 0.671875 -4.085938 0.671875 -5.265625 L 0.671875 -6.96875 C 0.671875 -8.132812 1.21875 -8.71875 2.3125 -8.71875 L 3.78125 -8.71875 C 4.882812 -8.71875 5.4375 -8.132812 5.4375 -6.96875 Z M 5.4375 -6.328125 "/></g></g></g><g fill="#253439" fill-opacity="1"><g transform="translate(154.059625, 282.624175)"><g><path d="M 2.53125 -3.375 L 2.53125 0 L 0.671875 0 L 0.671875 -8.59375 L 2.53125 -8.59375 L 2.53125 -5 L 4 -5 L 4 -8.59375 L 5.859375 -8.59375 L 5.859375 0 L 4 0 L 4 -3.375 Z M 2.53125 -3.375 "/></g></g></g><g fill="#253439" fill-opacity="1"><g transform="translate(163.621989, 282.624175)"><g><path d="M 5.71875 -6.96875 L 5.71875 -1.625 C 5.71875 -0.445312 5.171875 0.140625 4.078125 0.140625 L 2.3125 0.140625 C 1.21875 0.140625 0.671875 -0.445312 0.671875 -1.625 L 0.671875 -6.96875 C 0.671875 -8.132812 1.21875 -8.71875 2.3125 -8.71875 L 4.078125 -8.71875 C 5.171875 -8.71875 5.71875 -8.132812 5.71875 -6.96875 Z M 3.859375 -1.40625 L 3.859375 -7.203125 C 3.859375 -7.273438 3.832031 -7.335938 3.78125 -7.390625 C 3.738281 -7.441406 3.679688 -7.46875 3.609375 -7.46875 L 2.78125 -7.46875 C 2.707031 -7.46875 2.644531 -7.441406 2.59375 -7.390625 C 2.550781 -7.335938 2.53125 -7.273438 2.53125 -7.203125 L 2.53125 -1.40625 C 2.53125 -1.332031 2.550781 -1.269531 2.59375 -1.21875 C 2.644531 -1.164062 2.707031 -1.140625 2.78125 -1.140625 L 3.609375 -1.140625 C 3.679688 -1.140625 3.738281 -1.164062 3.78125 -1.21875 C 3.832031 -1.269531 3.859375 -1.332031 3.859375 -1.40625 Z M 3.859375 -1.40625 "/></g></g></g><g fill="#253439" fill-opacity="1"><g transform="translate(173.091397, 282.624175)"><g><path d="M 2.53125 -1.546875 L 4.578125 -1.546875 L 4.578125 0 L 0.671875 0 L 0.671875 -8.59375 L 4.578125 -8.59375 L 4.578125 -7.078125 L 2.53125 -7.078125 L 2.53125 -5.0625 L 4.453125 -5.0625 L 4.453125 -3.59375 L 2.53125 -3.59375 Z M 2.53125 -1.546875 "/></g></g></g><g fill="#253439" fill-opacity="1"><g transform="translate(181.126572, 282.624175)"><g><path d="M 5.4375 -6.328125 L 3.671875 -6.328125 L 3.671875 -7.015625 C 3.671875 -7.085938 3.644531 -7.148438 3.59375 -7.203125 C 3.539062 -7.253906 3.476562 -7.28125 3.40625 -7.28125 L 2.6875 -7.28125 C 2.613281 -7.28125 2.550781 -7.253906 2.5 -7.203125 C 2.457031 -7.148438 2.4375 -7.085938 2.4375 -7.015625 L 2.4375 -5.484375 C 2.4375 -5.410156 2.457031 -5.347656 2.5 -5.296875 C 2.550781 -5.242188 2.613281 -5.21875 2.6875 -5.21875 L 3.875 -5.21875 C 4.976562 -5.195312 5.53125 -4.613281 5.53125 -3.46875 L 5.53125 -1.625 C 5.53125 -0.445312 4.976562 0.140625 3.875 0.140625 L 2.3125 0.140625 C 1.21875 0.140625 0.671875 -0.445312 0.671875 -1.625 L 0.671875 -2.515625 L 2.4375 -2.515625 L 2.4375 -1.546875 C 2.4375 -1.484375 2.457031 -1.421875 2.5 -1.359375 C 2.550781 -1.304688 2.613281 -1.28125 2.6875 -1.28125 L 3.5 -1.28125 C 3.570312 -1.28125 3.632812 -1.304688 3.6875 -1.359375 C 3.738281 -1.421875 3.765625 -1.484375 3.765625 -1.546875 L 3.765625 -3.234375 C 3.765625 -3.304688 3.738281 -3.367188 3.6875 -3.421875 C 3.632812 -3.472656 3.570312 -3.5 3.5 -3.5 L 2.3125 -3.5 C 1.21875 -3.5 0.671875 -4.085938 0.671875 -5.265625 L 0.671875 -6.96875 C 0.671875 -8.132812 1.21875 -8.71875 2.3125 -8.71875 L 3.78125 -8.71875 C 4.882812 -8.71875 5.4375 -8.132812 5.4375 -6.96875 Z M 5.4375 -6.328125 "/></g></g></g><g fill="#253439" fill-opacity="1"><g transform="translate(190.2507, 282.624175)"><g/></g></g><g fill="#253439" fill-opacity="1"><g transform="translate(195.975171, 282.624175)"><g><path d="M 5.4375 -6.328125 L 3.671875 -6.328125 L 3.671875 -7.015625 C 3.671875 -7.085938 3.644531 -7.148438 3.59375 -7.203125 C 3.539062 -7.253906 3.476562 -7.28125 3.40625 -7.28125 L 2.6875 -7.28125 C 2.613281 -7.28125 2.550781 -7.253906 2.5 -7.203125 C 2.457031 -7.148438 2.4375 -7.085938 2.4375 -7.015625 L 2.4375 -5.484375 C 2.4375 -5.410156 2.457031 -5.347656 2.5 -5.296875 C 2.550781 -5.242188 2.613281 -5.21875 2.6875 -5.21875 L 3.875 -5.21875 C 4.976562 -5.195312 5.53125 -4.613281 5.53125 -3.46875 L 5.53125 -1.625 C 5.53125 -0.445312 4.976562 0.140625 3.875 0.140625 L 2.3125 0.140625 C 1.21875 0.140625 0.671875 -0.445312 0.671875 -1.625 L 0.671875 -2.515625 L 2.4375 -2.515625 L 2.4375 -1.546875 C 2.4375 -1.484375 2.457031 -1.421875 2.5 -1.359375 C 2.550781 -1.304688 2.613281 -1.28125 2.6875 -1.28125 L 3.5 -1.28125 C 3.570312 -1.28125 3.632812 -1.304688 3.6875 -1.359375 C 3.738281 -1.421875 3.765625 -1.484375 3.765625 -1.546875 L 3.765625 -3.234375 C 3.765625 -3.304688 3.738281 -3.367188 3.6875 -3.421875 C 3.632812 -3.472656 3.570312 -3.5 3.5 -3.5 L 2.3125 -3.5 C 1.21875 -3.5 0.671875 -4.085938 0.671875 -5.265625 L 0.671875 -6.96875 C 0.671875 -8.132812 1.21875 -8.71875 2.3125 -8.71875 L 3.78125 -8.71875 C 4.882812 -8.71875 5.4375 -8.132812 5.4375 -6.96875 Z M 5.4375 -6.328125 "/></g></g></g><g fill="#253439" fill-opacity="1"><g transform="translate(205.099296, 282.624175)"><g><path d="M 2.53125 -3.375 L 2.53125 0 L 0.671875 0 L 0.671875 -8.59375 L 2.53125 -8.59375 L 2.53125 -5 L 4 -5 L 4 -8.59375 L 5.859375 -8.59375 L 5.859375 0 L 4 0 L 4 -3.375 Z M 2.53125 -3.375 "/></g></g></g><g fill="#253439" fill-opacity="1"><g transform="translate(214.661663, 282.624175)"><g><path d="M 5.71875 -6.96875 L 5.71875 -1.625 C 5.71875 -0.445312 5.171875 0.140625 4.078125 0.140625 L 2.3125 0.140625 C 1.21875 0.140625 0.671875 -0.445312 0.671875 -1.625 L 0.671875 -6.96875 C 0.671875 -8.132812 1.21875 -8.71875 2.3125 -8.71875 L 4.078125 -8.71875 C 5.171875 -8.71875 5.71875 -8.132812 5.71875 -6.96875 Z M 3.859375 -1.40625 L 3.859375 -7.203125 C 3.859375 -7.273438 3.832031 -7.335938 3.78125 -7.390625 C 3.738281 -7.441406 3.679688 -7.46875 3.609375 -7.46875 L 2.78125 -7.46875 C 2.707031 -7.46875 2.644531 -7.441406 2.59375 -7.390625 C 2.550781 -7.335938 2.53125 -7.273438 2.53125 -7.203125 L 2.53125 -1.40625 C 2.53125 -1.332031 2.550781 -1.269531 2.59375 -1.21875 C 2.644531 -1.164062 2.707031 -1.140625 2.78125 -1.140625 L 3.609375 -1.140625 C 3.679688 -1.140625 3.738281 -1.164062 3.78125 -1.21875 C 3.832031 -1.269531 3.859375 -1.332031 3.859375 -1.40625 Z M 3.859375 -1.40625 "/></g></g></g><g fill="#253439" fill-opacity="1"><g transform="translate(224.131073, 282.624175)"><g><path d="M 4.015625 -8.59375 C 5.109375 -8.59375 5.65625 -8.007812 5.65625 -6.84375 L 5.65625 -5.125 C 5.65625 -3.957031 5.109375 -3.375 4.015625 -3.375 L 2.515625 -3.375 L 2.515625 0 L 0.65625 0 L 0.65625 -8.59375 Z M 3.796875 -4.921875 L 3.796875 -7.046875 C 3.796875 -7.117188 3.769531 -7.179688 3.71875 -7.234375 C 3.675781 -7.285156 3.617188 -7.3125 3.546875 -7.3125 L 2.515625 -7.3125 L 2.515625 -4.65625 L 3.546875 -4.65625 C 3.617188 -4.65625 3.675781 -4.679688 3.71875 -4.734375 C 3.769531 -4.785156 3.796875 -4.847656 3.796875 -4.921875 Z M 3.796875 -4.921875 "/></g></g></g><g fill="#253439" fill-opacity="1"><g transform="translate(104.763712, 139.554675)"><g><path d="M -5.65625 -6.953125 L 1.484375 -2.15625 L 0.484375 -0.671875 L -6.65625 -5.46875 Z M -5.65625 -6.953125 "/></g></g></g><g fill="#253439" fill-opacity="1"><g transform="translate(108.066724, 134.716571)"><g><path d="M -2.078125 -8.65625 L 2.125 -5.359375 C 3.050781 -4.628906 3.179688 -3.832031 2.515625 -2.96875 L 1.53125 -1.71875 C 0.863281 -0.863281 0.0664062 -0.800781 -0.859375 -1.53125 L -5.0625 -4.828125 C -5.976562 -5.546875 -6.101562 -6.332031 -5.4375 -7.1875 L -4.453125 -8.4375 C -3.785156 -9.300781 -2.992188 -9.375 -2.078125 -8.65625 Z M 1.1875 -3.8125 L -3.375 -7.375 C -3.425781 -7.425781 -3.484375 -7.445312 -3.546875 -7.4375 C -3.617188 -7.4375 -3.675781 -7.410156 -3.71875 -7.359375 L -4.203125 -6.75 C -4.242188 -6.6875 -4.257812 -6.617188 -4.25 -6.546875 C -4.238281 -6.484375 -4.207031 -6.425781 -4.15625 -6.375 L 0.40625 -2.8125 C 0.46875 -2.757812 0.535156 -2.734375 0.609375 -2.734375 C 0.679688 -2.742188 0.738281 -2.78125 0.78125 -2.84375 L 1.265625 -3.453125 C 1.304688 -3.503906 1.316406 -3.5625 1.296875 -3.625 C 1.285156 -3.695312 1.25 -3.757812 1.1875 -3.8125 Z M 1.1875 -3.8125 "/></g></g></g><g fill="#253439" fill-opacity="1"><g transform="translate(113.322267, 128.173603)"><g><path d="M -1.328125 -8.796875 L 2.578125 -5.15625 C 3.441406 -4.351562 3.503906 -3.550781 2.765625 -2.75 L 1.6875 -1.59375 C 0.9375 -0.789062 0.128906 -0.789062 -0.734375 -1.59375 L -4.640625 -5.234375 C -5.492188 -6.023438 -5.546875 -6.820312 -4.796875 -7.625 L -3.71875 -8.78125 C -2.976562 -9.582031 -2.179688 -9.585938 -1.328125 -8.796875 Z M 1.515625 -3.6875 L -2.71875 -7.640625 C -2.769531 -7.691406 -2.832031 -7.71875 -2.90625 -7.71875 C -2.976562 -7.71875 -3.039062 -7.691406 -3.09375 -7.640625 L -3.609375 -7.078125 C -3.660156 -7.023438 -3.679688 -6.960938 -3.671875 -6.890625 C -3.660156 -6.828125 -3.628906 -6.769531 -3.578125 -6.71875 L 0.65625 -2.765625 C 0.707031 -2.722656 0.769531 -2.695312 0.84375 -2.6875 C 0.914062 -2.6875 0.976562 -2.710938 1.03125 -2.765625 L 1.546875 -3.328125 C 1.597656 -3.378906 1.617188 -3.441406 1.609375 -3.515625 C 1.597656 -3.585938 1.566406 -3.644531 1.515625 -3.6875 Z M 1.515625 -3.6875 "/></g></g></g><g fill="#253439" fill-opacity="1"><g transform="translate(119.012636, 122.084927)"><g><path d="M -0.328125 -11.09375 L 0.671875 -11.96875 L 2.375 -2.0625 L 1.375 -1.1875 Z M -0.921875 -4.78125 L -1.171875 -4.578125 C -1.992188 -3.859375 -2.789062 -3.941406 -3.5625 -4.828125 L -4.203125 -5.578125 C -4.972656 -6.453125 -4.945312 -7.25 -4.125 -7.96875 L -3.875 -8.171875 C -3.050781 -8.890625 -2.253906 -8.8125 -1.484375 -7.9375 L -0.84375 -7.1875 C -0.0703125 -6.300781 -0.0976562 -5.5 -0.921875 -4.78125 Z M -2.109375 -5.203125 C -2.054688 -5.140625 -1.992188 -5.109375 -1.921875 -5.109375 C -1.859375 -5.109375 -1.800781 -5.128906 -1.75 -5.171875 L -1.4375 -5.4375 C -1.382812 -5.488281 -1.351562 -5.546875 -1.34375 -5.609375 C -1.34375 -5.679688 -1.367188 -5.75 -1.421875 -5.8125 L -2.953125 -7.578125 C -2.992188 -7.628906 -3.050781 -7.660156 -3.125 -7.671875 C -3.195312 -7.679688 -3.257812 -7.660156 -3.3125 -7.609375 L -3.625 -7.34375 C -3.675781 -7.300781 -3.703125 -7.238281 -3.703125 -7.15625 C -3.703125 -7.082031 -3.679688 -7.019531 -3.640625 -6.96875 Z M 3.171875 -8.546875 C 4.003906 -9.273438 4.8125 -9.195312 5.59375 -8.3125 L 6.234375 -7.578125 C 7.003906 -6.679688 6.972656 -5.867188 6.140625 -5.140625 L 5.90625 -4.9375 C 5.082031 -4.21875 4.285156 -4.304688 3.515625 -5.203125 L 2.875 -5.9375 C 2.09375 -6.820312 2.113281 -7.625 2.9375 -8.34375 Z M 5.65625 -6.171875 L 4.125 -7.9375 C 4.070312 -8 4.015625 -8.035156 3.953125 -8.046875 C 3.890625 -8.054688 3.828125 -8.035156 3.765625 -7.984375 L 3.453125 -7.703125 C 3.398438 -7.660156 3.367188 -7.601562 3.359375 -7.53125 C 3.359375 -7.46875 3.382812 -7.40625 3.4375 -7.34375 L 4.96875 -5.578125 C 5.019531 -5.523438 5.078125 -5.492188 5.140625 -5.484375 C 5.210938 -5.472656 5.273438 -5.488281 5.328125 -5.53125 L 5.640625 -5.8125 C 5.703125 -5.863281 5.734375 -5.921875 5.734375 -5.984375 C 5.734375 -6.054688 5.707031 -6.117188 5.65625 -6.171875 Z M 5.65625 -6.171875 "/></g></g></g><g fill="#253439" fill-opacity="1"><g transform="translate(128.62001, 114.101609)"><g/></g></g><g fill="#253439" fill-opacity="1"><g transform="translate(132.771811, 111.127309)"><g><path d="M -1.125 -9.546875 C -0.195312 -10.128906 0.570312 -9.925781 1.1875 -8.9375 L 4.859375 -3.015625 L 3.28125 -2.03125 L 1.765625 -4.46875 L 0.640625 -3.765625 L 2.15625 -1.328125 L 0.578125 -0.359375 L -3.09375 -6.28125 C -3.707031 -7.269531 -3.550781 -8.050781 -2.625 -8.625 Z M -0.109375 -5 L 1.015625 -5.703125 L -0.515625 -8.15625 C -0.546875 -8.21875 -0.597656 -8.253906 -0.671875 -8.265625 C -0.742188 -8.285156 -0.8125 -8.28125 -0.875 -8.25 L -1.578125 -7.8125 C -1.640625 -7.769531 -1.671875 -7.710938 -1.671875 -7.640625 C -1.679688 -7.578125 -1.671875 -7.515625 -1.640625 -7.453125 Z M -0.109375 -5 "/></g></g></g><g fill="#253439" fill-opacity="1"><g transform="translate(140.316902, 106.584556)"><g><path d="M -0.515625 -9.34375 L 1.140625 -10.1875 L 4.265625 -3.96875 C 4.796875 -2.914062 4.566406 -2.140625 3.578125 -1.640625 L 2.109375 -0.90625 C 1.140625 -0.414062 0.390625 -0.695312 -0.140625 -1.75 L -3.265625 -7.96875 L -1.609375 -8.796875 L 1.59375 -2.4375 C 1.625 -2.375 1.671875 -2.328125 1.734375 -2.296875 C 1.796875 -2.273438 1.859375 -2.285156 1.921875 -2.328125 L 2.5625 -2.640625 C 2.625 -2.671875 2.664062 -2.71875 2.6875 -2.78125 C 2.71875 -2.851562 2.71875 -2.921875 2.6875 -2.984375 Z M -0.515625 -9.34375 "/></g></g></g><g fill="#253439" fill-opacity="1"><g transform="translate(148.044807, 102.832785)"><g><path d="M -2.46875 -6.5625 L -3.0625 -8.03125 L 1.25 -9.78125 L 1.84375 -8.3125 L 0.546875 -7.78125 L 3.171875 -1.28125 L 1.453125 -0.59375 L -1.171875 -7.09375 Z M -2.46875 -6.5625 "/></g></g></g><g fill="#253439" fill-opacity="1"><g transform="translate(154.921717, 100.120961)"><g><path d="M 1.421875 -3.96875 L 2.421875 -0.75 L 0.640625 -0.203125 L -1.90625 -8.40625 L -0.125 -8.953125 L 0.9375 -5.53125 L 2.328125 -5.96875 L 1.265625 -9.390625 L 3.046875 -9.9375 L 5.59375 -1.734375 L 3.8125 -1.1875 L 2.8125 -4.40625 Z M 1.421875 -3.96875 "/></g></g></g><g fill="#253439" fill-opacity="1"><g transform="translate(163.461417, 97.600094)"><g><path d="M 2.140625 -2.0625 L 4.140625 -2.515625 L 4.46875 -1 L 0.65625 -0.140625 L -1.203125 -8.53125 L 2.609375 -9.390625 L 2.9375 -7.90625 L 0.9375 -7.453125 L 1.375 -5.484375 L 3.25 -5.90625 L 3.5625 -4.484375 L 1.6875 -4.0625 Z M 2.140625 -2.0625 "/></g></g></g><g fill="#253439" fill-opacity="1"><g transform="translate(170.685058, 96.067586)"><g><path d="M 5.546875 -0.765625 L 3.703125 -0.515625 L 2.71875 -7.578125 C 2.707031 -7.648438 2.675781 -7.707031 2.625 -7.75 C 2.570312 -7.800781 2.507812 -7.820312 2.4375 -7.8125 L 1.71875 -7.703125 C 1.644531 -7.691406 1.585938 -7.65625 1.546875 -7.59375 C 1.503906 -7.539062 1.488281 -7.476562 1.5 -7.40625 L 2.484375 -0.34375 L 0.65625 -0.09375 L -0.296875 -7 C -0.460938 -8.15625 -0.00390625 -8.804688 1.078125 -8.953125 L 2.703125 -9.1875 C 3.796875 -9.332031 4.425781 -8.828125 4.59375 -7.671875 Z M 5.546875 -0.765625 "/></g></g></g><g fill="#253439" fill-opacity="1"><g transform="translate(179.184164, 95.012834)"><g><path d="M -0.21875 -7.015625 L -0.3125 -8.59375 L 4.34375 -8.84375 L 4.4375 -7.265625 L 3.03125 -7.1875 L 3.421875 -0.1875 L 1.5625 -0.09375 L 1.171875 -7.09375 Z M -0.21875 -7.015625 "/></g></g></g><g fill="#253439" fill-opacity="1"><g transform="translate(186.620385, 94.704205)"><g><path d="M 2.625 -8.5625 L 2.53125 0.03125 L 0.671875 0 L 0.765625 -8.59375 Z M 2.625 -8.5625 "/></g></g></g><g fill="#253439" fill-opacity="1"><g transform="translate(192.281235, 94.799573)"><g><path d="M 3.953125 -1.09375 L 4.0625 -2.40625 L 5.828125 -2.25 L 5.75 -1.15625 C 5.644531 0.0195312 5.046875 0.5625 3.953125 0.46875 L 2.28125 0.328125 C 1.195312 0.242188 0.707031 -0.382812 0.8125 -1.5625 L 1.25 -6.875 C 1.34375 -8.039062 1.929688 -8.582031 3.015625 -8.5 L 4.6875 -8.359375 C 5.78125 -8.265625 6.28125 -7.632812 6.1875 -6.46875 L 6.109375 -5.671875 L 4.34375 -5.828125 L 4.4375 -6.859375 C 4.445312 -6.929688 4.425781 -6.992188 4.375 -7.046875 C 4.332031 -7.097656 4.273438 -7.128906 4.203125 -7.140625 L 3.375 -7.203125 C 3.300781 -7.210938 3.238281 -7.191406 3.1875 -7.140625 C 3.144531 -7.097656 3.117188 -7.039062 3.109375 -6.96875 L 2.625 -1.203125 C 2.625 -1.128906 2.644531 -1.0625 2.6875 -1 C 2.726562 -0.945312 2.785156 -0.914062 2.859375 -0.90625 L 3.6875 -0.84375 C 3.757812 -0.832031 3.820312 -0.851562 3.875 -0.90625 C 3.925781 -0.957031 3.953125 -1.019531 3.953125 -1.09375 Z M 3.953125 -1.09375 "/></g></g></g><g fill="#253439" fill-opacity="1"><g transform="translate(200.748338, 95.64389)"><g/></g></g><g fill="#253439" fill-opacity="1"><g transform="translate(205.798588, 96.442827)"><g><path d="M 6.703125 -4.984375 L 4.96875 -5.359375 L 5.125 -6.03125 C 5.132812 -6.101562 5.117188 -6.171875 5.078125 -6.234375 C 5.046875 -6.304688 4.992188 -6.347656 4.921875 -6.359375 L 4.21875 -6.515625 C 4.144531 -6.535156 4.078125 -6.523438 4.015625 -6.484375 C 3.960938 -6.441406 3.929688 -6.382812 3.921875 -6.3125 L 3.578125 -4.8125 C 3.566406 -4.75 3.578125 -4.6875 3.609375 -4.625 C 3.640625 -4.5625 3.691406 -4.519531 3.765625 -4.5 L 4.921875 -4.25 C 5.992188 -3.976562 6.40625 -3.285156 6.15625 -2.171875 L 5.75 -0.359375 C 5.488281 0.785156 4.820312 1.234375 3.75 0.984375 L 2.21875 0.640625 C 1.15625 0.398438 0.753906 -0.289062 1.015625 -1.4375 L 1.203125 -2.3125 L 2.921875 -1.921875 L 2.71875 -0.984375 C 2.695312 -0.921875 2.703125 -0.851562 2.734375 -0.78125 C 2.773438 -0.71875 2.832031 -0.675781 2.90625 -0.65625 L 3.703125 -0.484375 C 3.765625 -0.460938 3.828125 -0.472656 3.890625 -0.515625 C 3.953125 -0.566406 3.992188 -0.625 4.015625 -0.6875 L 4.375 -2.328125 C 4.394531 -2.398438 4.382812 -2.46875 4.34375 -2.53125 C 4.300781 -2.59375 4.25 -2.632812 4.1875 -2.65625 L 3.015625 -2.921875 C 1.953125 -3.160156 1.550781 -3.851562 1.8125 -5 L 2.1875 -6.65625 C 2.4375 -7.789062 3.09375 -8.238281 4.15625 -8 L 5.59375 -7.671875 C 6.675781 -7.429688 7.09375 -6.742188 6.84375 -5.609375 Z M 6.703125 -4.984375 "/></g></g></g><g fill="#253439" fill-opacity="1"><g transform="translate(214.021436, 98.388876)"><g><path d="M 3.4375 -2.453125 L 2.40625 0.765625 L 0.640625 0.203125 L 3.265625 -7.984375 L 5.03125 -7.421875 L 3.921875 -4 L 5.328125 -3.546875 L 6.4375 -6.96875 L 8.203125 -6.40625 L 5.578125 1.78125 L 3.8125 1.21875 L 4.84375 -2 Z M 3.4375 -2.453125 "/></g></g></g><g fill="#253439" fill-opacity="1"><g transform="translate(222.448051, 101.197678)"><g><path d="M 7.96875 -4.203125 L 5.890625 0.71875 C 5.429688 1.800781 4.695312 2.132812 3.6875 1.71875 L 2.0625 1.03125 C 1.0625 0.601562 0.789062 -0.148438 1.25 -1.234375 L 3.328125 -6.15625 C 3.785156 -7.226562 4.515625 -7.550781 5.515625 -7.125 L 7.140625 -6.4375 C 8.148438 -6.019531 8.425781 -5.273438 7.96875 -4.203125 Z M 4.109375 0.203125 L 6.359375 -5.140625 C 6.390625 -5.203125 6.390625 -5.265625 6.359375 -5.328125 C 6.335938 -5.390625 6.296875 -5.4375 6.234375 -5.46875 L 5.46875 -5.796875 C 5.40625 -5.816406 5.335938 -5.8125 5.265625 -5.78125 C 5.203125 -5.757812 5.15625 -5.71875 5.125 -5.65625 L 2.875 -0.3125 C 2.84375 -0.238281 2.835938 -0.164062 2.859375 -0.09375 C 2.890625 -0.03125 2.9375 0.0078125 3 0.03125 L 3.765625 0.359375 C 3.828125 0.390625 3.890625 0.390625 3.953125 0.359375 C 4.023438 0.328125 4.078125 0.273438 4.109375 0.203125 Z M 4.109375 0.203125 "/></g></g></g><g fill="#253439" fill-opacity="1"><g transform="translate(230.516425, 104.741863)"><g><path d="M 2.96875 -0.203125 L 4.78125 0.75 L 4.0625 2.125 L 0.59375 0.3125 L 4.578125 -7.296875 L 8.046875 -5.484375 L 7.34375 -4.140625 L 5.53125 -5.09375 L 4.59375 -3.3125 L 6.296875 -2.421875 L 5.625 -1.125 L 3.921875 -2.015625 Z M 2.96875 -0.203125 "/></g></g></g><g fill="#253439" fill-opacity="1"><g transform="translate(237.025287, 108.233718)"><g><path d="M 7.96875 -2.453125 L 6.484375 -3.40625 L 6.859375 -3.984375 C 6.890625 -4.046875 6.894531 -4.109375 6.875 -4.171875 C 6.863281 -4.242188 6.828125 -4.300781 6.765625 -4.34375 L 6.15625 -4.71875 C 6.101562 -4.757812 6.039062 -4.769531 5.96875 -4.75 C 5.894531 -4.738281 5.84375 -4.703125 5.8125 -4.640625 L 4.984375 -3.34375 C 4.953125 -3.28125 4.941406 -3.210938 4.953125 -3.140625 C 4.960938 -3.078125 4.992188 -3.023438 5.046875 -2.984375 L 6.0625 -2.359375 C 6.976562 -1.742188 7.128906 -0.953125 6.515625 0.015625 L 5.53125 1.578125 C 4.90625 2.578125 4.128906 2.78125 3.203125 2.1875 L 1.875 1.359375 C 0.945312 0.773438 0.796875 -0.015625 1.421875 -1.015625 L 1.90625 -1.765625 L 3.40625 -0.828125 L 2.890625 -0.015625 C 2.859375 0.0351562 2.847656 0.0976562 2.859375 0.171875 C 2.867188 0.253906 2.898438 0.316406 2.953125 0.359375 L 3.640625 0.78125 C 3.703125 0.820312 3.769531 0.832031 3.84375 0.8125 C 3.925781 0.789062 3.984375 0.753906 4.015625 0.703125 L 4.90625 -0.71875 C 4.945312 -0.78125 4.957031 -0.847656 4.9375 -0.921875 C 4.914062 -0.992188 4.875 -1.050781 4.8125 -1.09375 L 3.8125 -1.71875 C 2.882812 -2.300781 2.738281 -3.09375 3.375 -4.09375 L 4.28125 -5.53125 C 4.90625 -6.519531 5.679688 -6.722656 6.609375 -6.140625 L 7.859375 -5.359375 C 8.785156 -4.765625 8.9375 -3.972656 8.3125 -2.984375 Z M 7.96875 -2.453125 "/></g></g></g><g fill="#253439" fill-opacity="1"><g transform="translate(244.145086, 112.893388)"><g/></g></g><g fill="#253439" fill-opacity="1"><g transform="translate(248.255243, 115.93481)"><g><path d="M 8.234375 -1.3125 L 6.890625 -2.453125 L 7.34375 -2.984375 C 7.382812 -3.035156 7.398438 -3.097656 7.390625 -3.171875 C 7.390625 -3.253906 7.363281 -3.316406 7.3125 -3.359375 L 6.75 -3.828125 C 6.695312 -3.878906 6.632812 -3.894531 6.5625 -3.875 C 6.488281 -3.863281 6.429688 -3.832031 6.390625 -3.78125 L 5.390625 -2.609375 C 5.347656 -2.554688 5.328125 -2.492188 5.328125 -2.421875 C 5.335938 -2.359375 5.367188 -2.300781 5.421875 -2.25 L 6.328125 -1.484375 C 7.148438 -0.765625 7.191406 0.03125 6.453125 0.90625 L 5.265625 2.328125 C 4.503906 3.222656 3.703125 3.316406 2.859375 2.609375 L 1.671875 1.609375 C 0.835938 0.898438 0.800781 0.0976562 1.5625 -0.796875 L 2.140625 -1.484375 L 3.484375 -0.34375 L 2.859375 0.390625 C 2.816406 0.441406 2.796875 0.5 2.796875 0.5625 C 2.796875 0.632812 2.820312 0.695312 2.875 0.75 L 3.5 1.28125 C 3.550781 1.320312 3.613281 1.335938 3.6875 1.328125 C 3.769531 1.328125 3.832031 1.300781 3.875 1.25 L 4.96875 -0.03125 C 5.007812 -0.0820312 5.023438 -0.144531 5.015625 -0.21875 C 5.015625 -0.300781 4.988281 -0.363281 4.9375 -0.40625 L 4.03125 -1.171875 C 3.195312 -1.878906 3.15625 -2.679688 3.90625 -3.578125 L 5.015625 -4.890625 C 5.765625 -5.773438 6.554688 -5.863281 7.390625 -5.15625 L 8.515625 -4.21875 C 9.359375 -3.5 9.40625 -2.695312 8.65625 -1.8125 Z M 8.234375 -1.3125 "/></g></g></g><g fill="#253439" fill-opacity="1"><g transform="translate(254.64987, 121.457279)"><g><path d="M 4.171875 -0.578125 L 1.78125 1.796875 L 0.46875 0.484375 L 6.578125 -5.5625 L 7.890625 -4.25 L 5.328125 -1.71875 L 6.359375 -0.671875 L 8.921875 -3.203125 L 10.234375 -1.890625 L 4.125 4.15625 L 2.8125 2.84375 L 5.203125 0.46875 Z M 4.171875 -0.578125 "/></g></g></g><g fill="#253439" fill-opacity="1"><g transform="translate(260.82633, 127.840933)"><g><path d="M 9.015625 -0.03125 L 4.890625 3.375 C 3.984375 4.125 3.179688 4.078125 2.484375 3.234375 L 1.359375 1.875 C 0.660156 1.03125 0.765625 0.234375 1.671875 -0.515625 L 5.796875 -3.921875 C 6.691406 -4.671875 7.488281 -4.625 8.1875 -3.78125 L 9.3125 -2.421875 C 10.007812 -1.578125 9.910156 -0.78125 9.015625 -0.03125 Z M 3.53125 2.078125 L 8 -1.625 C 8.0625 -1.664062 8.097656 -1.722656 8.109375 -1.796875 C 8.117188 -1.867188 8.097656 -1.929688 8.046875 -1.984375 L 7.515625 -2.625 C 7.472656 -2.675781 7.414062 -2.703125 7.34375 -2.703125 C 7.28125 -2.703125 7.21875 -2.679688 7.15625 -2.640625 L 2.6875 1.0625 C 2.632812 1.101562 2.601562 1.15625 2.59375 1.21875 C 2.582031 1.289062 2.597656 1.351562 2.640625 1.40625 L 3.171875 2.046875 C 3.222656 2.097656 3.28125 2.125 3.34375 2.125 C 3.414062 2.132812 3.476562 2.117188 3.53125 2.078125 Z M 3.53125 2.078125 "/></g></g></g><g fill="#253439" fill-opacity="1"><g transform="translate(266.346571, 134.692172)"><g><path d="M 9.359375 -1.5625 C 9.984375 -0.664062 9.8125 0.109375 8.84375 0.765625 L 7.4375 1.75 C 6.476562 2.40625 5.6875 2.285156 5.0625 1.390625 L 4.203125 0.15625 L 1.421875 2.078125 L 0.375 0.546875 L 7.453125 -4.328125 Z M 6.203125 0.328125 L 7.953125 -0.875 C 8.015625 -0.914062 8.050781 -0.96875 8.0625 -1.03125 C 8.082031 -1.101562 8.070312 -1.171875 8.03125 -1.234375 L 7.4375 -2.078125 L 5.25 -0.5625 L 5.84375 0.28125 C 5.882812 0.34375 5.9375 0.375 6 0.375 C 6.070312 0.382812 6.140625 0.367188 6.203125 0.328125 Z M 6.203125 0.328125 "/></g></g></g></svg>